<svg xmlns="http://www.w3.org/2000/svg" viewBox="0 0 19 18" width="19" height="18">
	<style>
		tspan { white-space:pre }
		.shp0 { fill: #4b526b } 
	</style>
	<g id="best game">
		<g id="game 1">
			<g id="stars">
				<path id="favourite copy 4" class="shp0" d="M5.33 18.3C7.06 17.49 10.05 16.07 10.05 16.07C10.05 16.07 12.99 17.45 14.87 18.33C14.26 18.04 16.43 19.57 16.23 17.45C16.04 15.41 15.73 12.14 15.73 12.14C15.73 12.14 17.88 9.75 19.22 8.26C18.66 8.88 20.76 7.18 18.8 6.81C16.83 6.44 13.28 6.18 13.28 6.18C13.28 6.18 11.87 2.92 10.83 1.12C11.32 1.96 10.28 -0.73 9.25 1.08C8.21 2.89 6.7 6.19 6.7 6.19C6.7 6.19 3.27 6.46 1.29 6.84C2.06 6.69 -0.52 6.76 0.79 8.21C2.13 9.7 4.36 12.17 4.36 12.17C4.36 12.17 4.06 15.45 3.88 17.49C3.93 16.96 3.2 19.31 5.33 18.3Z" />
			</g>
		</g>
	</g>
</svg>